<svg xmlns="http://www.w3.org/2000/svg" width="32" height="32" id="bug"><g transform="translate(459.875 -1360.286)"><path style="isolation:auto;mix-blend-mode:normal" fill="none" stroke="#000" stroke-dashoffset=".5" stroke-linecap="round" stroke-linejoin="round" d="M-432.734 1370.218a12.502 12.476 0 0 1-11.102 6.815 12.502 12.476 0 0 1-11.145-6.746" color="#000" overflow="visible"></path><path fill="none" stroke="#000" stroke-linecap="round" stroke-linejoin="round" d="M-456.377 1379.806h25.004"></path><path style="isolation:auto;mix-blend-mode:normal" fill="none" stroke="#000" stroke-dashoffset=".5" stroke-linecap="round" stroke-linejoin="round" d="M-432.734-1390.78a12.502 12.476 0 0 1-11.102 6.816 12.502 12.476 0 0 1-11.145-6.747" color="#000" overflow="visible" transform="scale(1 -1)"></path><path style="isolation:auto;mix-blend-mode:normal" fill="none" stroke="#000" stroke-dashoffset=".5" stroke-linecap="round" stroke-linejoin="round" d="M-449.431 1361.786a4.167 4.158 0 0 1 4.167 4.158m2.778 0a4.167 4.158 0 0 1 4.167-4.158" color="#000" overflow="visible"></path><path style="isolation:auto;mix-blend-mode:normal" fill="#fd5b6a" d="M-443.875 1363.865a4.857 4.857 0 0 0-4.862 4.851c.001.363.045.725.128 1.078a11.013 11.013 0 0 1 4.734-1.078c1.693 0 3.294.395 4.734 1.078.083-.353.126-.715.128-1.078a4.857 4.857 0 0 0-4.862-4.851z" color="#000" overflow="visible"></path><ellipse style="isolation:auto;mix-blend-mode:normal" cx="-443.875" cy="1379.806" fill="#fd5b6a" color="#000" overflow="visible" rx="9.029" ry="9.01"></ellipse><path style="isolation:auto;mix-blend-mode:normal" fill="#fff" d="M-443.875 1370.796a9.029 9.01 0 0 0-9.03 9.01 9.029 9.01 0 0 0 9.03 9.01 9.029 9.01 0 0 0 .785-.04 9.029 9.01 0 0 1-8.238-8.97 9.029 9.01 0 0 1 8.244-8.971 9.029 9.01 0 0 0-.791-.04zm0-6.932a4.856 4.856 0 0 0-4.861 4.852c0 .363.044.725.127 1.078.433-.206.885-.375 1.345-.526a4.728 4.728 0 0 1-.035-.552c0-2.436 1.8-4.446 4.145-4.793a4.892 4.892 0 0 0-.721-.06zm1.437 4.852c-.243 0-.48.025-.718.04 1.426.096 2.782.453 4.015 1.038.041-.174.07-.349.092-.526a10.885 10.885 0 0 0-3.389-.552z" color="#000" overflow="visible"></path><path fill="#fe2b70" style="isolation:auto;mix-blend-mode:normal" d="M-184 1350.796a9.029 9.01 0 0 0-9.03 9.01 9.029 9.01 0 0 0 9.03 9.01 9.029 9.01 0 0 0 .785-.04 9.029 9.01 0 0 1-8.238-8.97 9.029 9.01 0 0 1 8.244-8.971 9.029 9.01 0 0 0-.791-.04zm0-6.932a4.856 4.856 0 0 0-4.861 4.852c0 .363.044.725.127 1.078.433-.206.885-.375 1.345-.526a4.728 4.728 0 0 1-.035-.552c0-2.436 1.8-4.446 4.145-4.793a4.892 4.892 0 0 0-.721-.06zm1.437 4.852c-.243 0-.48.025-.718.04 1.426.096 2.782.453 4.015 1.038.041-.174.07-.349.092-.526a10.885 10.885 0 0 0-3.389-.552z" color="#000" overflow="visible" transform="matrix(-1 0 0 1 -628.375 20)"></path><path fill="none" stroke="#000" stroke-dashoffset=".5" stroke-linecap="round" stroke-linejoin="round" d="M-437.49 1373.435a8.965 8.965 0 0 1 2.645 6.371c-.001 4.976-4.043 9.01-9.03 9.01-4.987 0-9.029-4.034-9.029-9.01s4.042-9.01 9.029-9.01c1.247 0 2.434.252 3.514.708m-3.514-7.64a4.857 4.857 0 0 0-4.862 4.852c.001.363.045.725.128 1.078a11.013 11.013 0 0 1 4.734-1.078c1.693 0 3.294.395 4.734 1.078.083-.353.126-.715.128-1.078a4.857 4.857 0 0 0-4.862-4.851z" color="#000" overflow="visible"></path></g></svg>